<mxfile host="app.diagrams.net" modified="2024-07-22T20:30:36.697Z" agent="Mozilla/5.0 (Windows NT 10.0; Win64; x64) AppleWebKit/537.36 (KHTML, like Gecko) Chrome/110.0.0.0 Safari/537.36" version="24.7.3" etag="324_TFdnRg4KPcqvCQLm" type="github">
  <diagram name="PÃ¡gina-1" id="0XDVDg-FUCzKCvrdnwsk">
    <mxGraphModel>
      <root>
        <mxCell id="0" />
        <mxCell id="1" parent="0" />
      </root>
    </mxGraphModel>
  </diagram>
</mxfile>
